# xmcd CD database file
#
# Track frame offsets:
#	187
#	18737
#	38117
#	59555
#	80550
#	101842
#	123380
#	144682
#	163605
#	180235
#
# Disc length: 2672 seconds
#
# Revision: 0
# Processed by: cddbd v1.5.1PL0 Copyright (c) Steve Scherf et al.
# Submitted via: CDex 1.51
#
DISCID=880a6e0a
DTITLE=須藤あきら - Pandora
DYEAR=1996
DGENRE=Rock
TTITLE0=抱きたいの
TTITLE1=JUST TAKE MY HEART
TTITLE2=夢をとめないで
TTITLE3=恋のはじまり 〜SWEET ANGEL〜
TTITLE4=ひこうき雲
TTITLE5=STEAL AWAY
TTITLE6=明日こそ強くなれ
TTITLE7=愛が眠れない
TTITLE8=I can't stand it any more
TTITLE9=晴れた朝のせいだから
EXTD=YEAR: 1996
EXTT0=
EXTT1=
EXTT2=
EXTT3=
EXTT4=
EXTT5=
EXTT6=
EXTT7=
EXTT8=
EXTT9=
PLAYORDER=
